name Walk6.mot
datacolumns 19
datarows 27
range 1.28000000 1.30600000
endheader

                time	   L_ground_force_vx	   L_ground_force_vy	   L_ground_force_vz	   L_ground_force_px	   L_ground_force_py	   L_ground_force_pz	   R_ground_force_vx	   R_ground_force_vy	   R_ground_force_vz	   R_ground_force_px	   R_ground_force_py	   R_ground_force_pz	   L_ground_torque_x	   L_ground_torque_y	   L_ground_torque_z	   R_ground_torque_x	   R_ground_torque_y	   R_ground_torque_z	
          1.28000000	          0.00000000	          0.00000000	          0.00000000	          0.00000000	          0.00000000	          0.00000000	          0.00000000	          0.00000000	          0.00000000	          0.00000000	          0.00000000	          0.00000000	          0.00000000	          0.00000000	          0.00000000	          0.00000000	          0.00000000	          0.00000000	
          1.28100000	          0.00000000	          0.00000000	          0.00000000	          0.00000000	          0.00000000	          0.00000000	          0.00000000	          0.00000000	          0.00000000	          0.00000000	          0.00000000	          0.00000000	          0.00000000	          0.00000000	          0.00000000	          0.00000000	          0.00000000	          0.00000000	
          1.28200000	          0.00000000	          0.00000000	          0.00000000	          0.00000000	          0.00000000	          0.00000000	          0.00000000	          0.00000000	          0.00000000	          0.00000000	          0.00000000	          0.00000000	          0.00000000	          0.00000000	          0.00000000	          0.00000000	          0.00000000	          0.00000000	
          1.28300000	          0.00000000	          0.00000000	          0.00000000	          0.00000000	          0.00000000	          0.00000000	          0.00000000	          0.00000000	          0.00000000	          0.00000000	          0.00000000	          0.00000000	          0.00000000	          0.00000000	          0.00000000	          0.00000000	          0.00000000	          0.00000000	
          1.28400000	          0.00000000	          0.00000000	          0.00000000	          0.00000000	          0.00000000	          0.00000000	          0.00000000	          0.00000000	          0.00000000	          0.00000000	          0.00000000	          0.00000000	          0.00000000	          0.00000000	          0.00000000	          0.00000000	          0.00000000	          0.00000000	
          1.28500000	          0.00000000	          0.00000000	          0.00000000	          0.00000000	          0.00000000	          0.00000000	          0.00000000	          0.00000000	          0.00000000	          0.00000000	          0.00000000	          0.00000000	          0.00000000	          0.00000000	          0.00000000	          0.00000000	          0.00000000	          0.00000000	
          1.28600000	          0.00000000	          0.00000000	          0.00000000	          0.00000000	          0.00000000	          0.00000000	          0.00000000	          0.00000000	          0.00000000	          0.00000000	          0.00000000	          0.00000000	          0.00000000	          0.00000000	          0.00000000	          0.00000000	          0.00000000	          0.00000000	
          1.28700000	          0.00000000	          0.00000000	          0.00000000	          0.00000000	          0.00000000	          0.00000000	          0.00000000	          0.00000000	          0.00000000	          0.00000000	          0.00000000	          0.00000000	          0.00000000	          0.00000000	          0.00000000	          0.00000000	          0.00000000	          0.00000000	
          1.28800000	          0.00000000	          0.00000000	          0.00000000	          0.00000000	          0.00000000	          0.00000000	          0.00000000	          0.00000000	          0.00000000	          0.00000000	          0.00000000	          0.00000000	          0.00000000	          0.00000000	          0.00000000	          0.00000000	          0.00000000	          0.00000000	
          1.28900000	          0.00000000	          0.00000000	          0.00000000	          0.00000000	          0.00000000	          0.00000000	          0.53220171	         16.24679177	         -0.01019388	         -0.31199650	          0.00000000	          0.06266579	          0.00000000	          0.00000000	          0.00000000	          0.00000000	         -0.16268503	          0.00000000	
          1.29000000	          0.00000000	          0.00000000	          0.00000000	          0.00000000	          0.00000000	          0.00000000	          0.93910854	         31.98461985	         -0.55391061	         -0.31861917	          0.00000000	          0.06610074	          0.00000000	          0.00000000	          0.00000000	          0.00000000	         -0.18886808	          0.00000000	
          1.29100000	          0.00000000	          0.00000000	          0.00000000	          0.00000000	          0.00000000	          0.00000000	          1.37066680	         59.31247357	         -1.76006017	         -0.32216883	          0.00000000	          0.06741160	          0.00000000	          0.00000000	          0.00000000	          0.00000000	         -0.14867560	          0.00000000	
          1.29200000	          0.00000000	          0.00000000	          0.00000000	          0.00000000	          0.00000000	          0.00000000	          1.78242127	        103.91417390	         -4.03045955	         -0.32381778	          0.00000000	          0.06794908	          0.00000000	          0.00000000	          0.00000000	          0.00000000	         -0.03121306	          0.00000000	
          1.29300000	          0.00000000	          0.00000000	          0.00000000	          0.00000000	          0.00000000	          0.00000000	          2.22261357	        170.60173926	         -7.84908676	         -0.32439831	          0.00000000	          0.06828131	          0.00000000	          0.00000000	          0.00000000	          0.00000000	          0.14617698	          0.00000000	
          1.29400000	          0.00000000	          0.00000000	          0.00000000	          0.00000000	          0.00000000	          0.00000000	          2.81424531	        260.70516019	        -13.72336483	         -0.32444997	          0.00000000	          0.06854547	          0.00000000	          0.00000000	          0.00000000	          0.00000000	          0.35416280	          0.00000000	
          1.29500000	          0.00000000	          0.00000000	          0.00000000	          0.00000000	          0.00000000	          0.00000000	          3.62942239	        369.58828296	        -22.05619593	         -0.32427748	          0.00000000	          0.06879813	          0.00000000	          0.00000000	          0.00000000	          0.00000000	          0.56417787	          0.00000000	
          1.29600000	          0.00000000	          0.00000000	          0.00000000	          0.00000000	          0.00000000	          0.00000000	          4.54329240	        486.16987284	        -32.96472715	         -0.32402004	          0.00000000	          0.06910291	          0.00000000	          0.00000000	          0.00000000	          0.00000000	          0.74777898	          0.00000000	
          1.29700000	          0.00000000	          0.00000000	          0.00000000	          0.00000000	          0.00000000	          0.00000000	          5.17064929	        595.72107562	        -46.10424716	         -0.32372758	          0.00000000	          0.06949939	          0.00000000	          0.00000000	          0.00000000	          0.00000000	          0.87354732	          0.00000000	
          1.29800000	          0.00000000	          0.00000000	          0.00000000	          0.00000000	          0.00000000	          0.00000000	          4.94001647	        684.75799654	        -60.62484337	         -0.32341143	          0.00000000	          0.06999208	          0.00000000	          0.00000000	          0.00000000	          0.00000000	          0.91687227	          0.00000000	
          1.29900000	          0.00000000	          0.00000000	          0.00000000	          0.00000000	          0.00000000	          0.00000000	          3.29906242	        745.14891187	        -75.37208236	         -0.32306078	          0.00000000	          0.07055481	          0.00000000	          0.00000000	          0.00000000	          0.00000000	          0.87553847	          0.00000000	
          1.30000000	          0.00000000	          0.00000000	          0.00000000	          0.00000000	          0.00000000	          0.00000000	         -0.06182571	        775.43975116	        -89.23157917	         -0.32265451	          0.00000000	          0.07113810	          0.00000000	          0.00000000	          0.00000000	          0.00000000	          0.77459759	          0.00000000	
          1.30100000	          0.00000000	          0.00000000	          0.00000000	          0.00000000	          0.00000000	          0.00000000	         -5.12993783	        779.62838333	       -101.37579239	         -0.32217791	          0.00000000	          0.07169812	          0.00000000	          0.00000000	          0.00000000	          0.00000000	          0.66025169	          0.00000000	
          1.30200000	          0.00000000	          0.00000000	          0.00000000	          0.00000000	          0.00000000	          0.00000000	        -11.64595721	        764.89386736	       -111.32812850	         -0.32163393	          0.00000000	          0.07222257	          0.00000000	          0.00000000	          0.00000000	          0.00000000	          0.57931714	          0.00000000	
          1.30300000	          0.00000000	          0.00000000	          0.00000000	          0.00000000	          0.00000000	          0.00000000	        -19.22402393	        739.43510995	       -118.94428504	         -0.32104170	          0.00000000	          0.07271671	          0.00000000	          0.00000000	          0.00000000	          0.00000000	          0.55102777	          0.00000000	
          1.30400000	          0.00000000	          0.00000000	          0.00000000	          0.00000000	          0.00000000	          0.00000000	        -27.47875576	        710.78916281	       -124.37231191	         -0.32042612	          0.00000000	          0.07316806	          0.00000000	          0.00000000	          0.00000000	          0.00000000	          0.56642338	          0.00000000	
          1.30500000	          0.00000000	          0.00000000	          0.00000000	          0.00000000	          0.00000000	          0.00000000	        -36.14490103	        684.69967262	       -127.96250312	         -0.31981741	          0.00000000	          0.07353762	          0.00000000	          0.00000000	          0.00000000	          0.00000000	          0.61516448	          0.00000000	
          1.30600000	          0.00000000	          0.00000000	          0.00000000	          0.00000000	          0.00000000	          0.00000000	        -45.10876722	        664.63325257	       -130.12554935	         -0.31925101	          0.00000000	          0.07379623	          0.00000000	          0.00000000	          0.00000000	          0.00000000	          0.69395092	          0.00000000	
